<svg width="24" height="24" viewBox="0 0 24 24" fill="none" xmlns="http://www.w3.org/2000/svg">
<path fill-rule="evenodd" clip-rule="evenodd" d="M12 15.75C12.9946 15.75 13.9484 15.3549 14.6517 14.6517C15.3549 13.9484 15.75 12.9946 15.75 12C15.75 11.0054 15.3549 10.0516 14.6517 9.34835C13.9484 8.64509 12.9946 8.25 12 8.25C11.0054 8.25 10.0516 8.64509 9.34835 9.34835C8.64509 10.0516 8.25 11.0054 8.25 12C8.25 12.9946 8.64509 13.9484 9.34835 14.6517C10.0516 15.3549 11.0054 15.75 12 15.75ZM12 18C13.5913 18 15.1174 17.3679 16.2426 16.2426C17.3679 15.1174 18 13.5913 18 12C18 10.4087 17.3679 8.88258 16.2426 7.75736C15.1174 6.63214 13.5913 6 12 6C10.4087 6 8.88258 6.63214 7.75736 7.75736C6.63214 8.88258 6 10.4087 6 12C6 13.5913 6.63214 15.1174 7.75736 16.2426C8.88258 17.3679 10.4087 18 12 18ZM12 0C12.2984 0 12.5845 0.118526 12.7955 0.329505C13.0065 0.540483 13.125 0.826631 13.125 1.125V3.375C13.125 3.67337 13.0065 3.95952 12.7955 4.1705C12.5845 4.38147 12.2984 4.5 12 4.5C11.7016 4.5 11.4155 4.38147 11.2045 4.1705C10.9935 3.95952 10.875 3.67337 10.875 3.375V1.125C10.875 0.826631 10.9935 0.540483 11.2045 0.329505C11.4155 0.118526 11.7016 0 12 0V0ZM12 19.5C12.2984 19.5 12.5845 19.6185 12.7955 19.8295C13.0065 20.0405 13.125 20.3266 13.125 20.625V22.875C13.125 23.1734 13.0065 23.4595 12.7955 23.6705C12.5845 23.8815 12.2984 24 12 24C11.7016 24 11.4155 23.8815 11.2045 23.6705C10.9935 23.4595 10.875 23.1734 10.875 22.875V20.625C10.875 20.3266 10.9935 20.0405 11.2045 19.8295C11.4155 19.6185 11.7016 19.5 12 19.5ZM3.5145 3.5145C3.61898 3.40996 3.74303 3.32703 3.87956 3.27044C4.0161 3.21386 4.16245 3.18474 4.31025 3.18474C4.45805 3.18474 4.6044 3.21386 4.74094 3.27044C4.87747 3.32703 5.00152 3.40996 5.106 3.5145L6.696 5.106C6.89472 5.31926 7.0029 5.60133 6.99776 5.89278C6.99262 6.18424 6.87455 6.46231 6.66843 6.66843C6.46231 6.87455 6.18424 6.99262 5.89278 6.99776C5.60133 7.0029 5.31926 6.89472 5.106 6.696L3.516 5.106C3.30532 4.89506 3.18699 4.60913 3.18699 4.311C3.18699 4.01287 3.30532 3.72694 3.516 3.516L3.5145 3.5145ZM17.304 17.304C17.5149 17.0933 17.8009 16.975 18.099 16.975C18.3971 16.975 18.6831 17.0933 18.894 17.304L20.4855 18.894C20.6905 19.1061 20.8041 19.3902 20.8016 19.6852C20.7992 19.9802 20.681 20.2624 20.4725 20.4711C20.2641 20.6797 19.9819 20.7982 19.687 20.8009C19.392 20.8036 19.1078 20.6903 18.8955 20.4855L17.304 18.8955C17.1995 18.791 17.1165 18.667 17.0599 18.5304C17.0034 18.3939 16.9742 18.2475 16.9742 18.0998C16.9742 17.952 17.0034 17.8056 17.0599 17.6691C17.1165 17.5325 17.1995 17.4085 17.304 17.304ZM24 12C24 12.2984 23.8815 12.5845 23.6705 12.7955C23.4595 13.0065 23.1734 13.125 22.875 13.125H20.625C20.3266 13.125 20.0405 13.0065 19.8295 12.7955C19.6185 12.5845 19.5 12.2984 19.5 12C19.5 11.7016 19.6185 11.4155 19.8295 11.2045C20.0405 10.9935 20.3266 10.875 20.625 10.875H22.875C23.1734 10.875 23.4595 10.9935 23.6705 11.2045C23.8815 11.4155 24 11.7016 24 12ZM4.5 12C4.5 12.2984 4.38147 12.5845 4.1705 12.7955C3.95952 13.0065 3.67337 13.125 3.375 13.125H1.125C0.826631 13.125 0.540483 13.0065 0.329505 12.7955C0.118526 12.5845 0 12.2984 0 12C0 11.7016 0.118526 11.4155 0.329505 11.2045C0.540483 10.9935 0.826631 10.875 1.125 10.875H3.375C3.67337 10.875 3.95952 10.9935 4.1705 11.2045C4.38147 11.4155 4.5 11.7016 4.5 12ZM20.4855 3.5145C20.59 3.61898 20.673 3.74303 20.7296 3.87956C20.7861 4.0161 20.8153 4.16245 20.8153 4.31025C20.8153 4.45805 20.7861 4.6044 20.7296 4.74094C20.673 4.87747 20.59 5.00152 20.4855 5.106L18.894 6.696C18.791 6.80653 18.6668 6.89518 18.5288 6.95667C18.3908 7.01816 18.2418 7.05122 18.0908 7.05389C17.9397 7.05655 17.7897 7.02877 17.6496 6.97218C17.5095 6.9156 17.3823 6.83139 17.2754 6.72456C17.1686 6.61773 17.0844 6.49048 17.0278 6.3504C16.9712 6.21031 16.9434 6.06027 16.9461 5.90922C16.9488 5.75816 16.9818 5.60919 17.0433 5.47119C17.1048 5.33319 17.1935 5.20899 17.304 5.106L18.894 3.516C19.1049 3.30532 19.3909 3.18699 19.689 3.18699C19.9871 3.18699 20.2731 3.30532 20.484 3.516L20.4855 3.5145ZM6.696 17.304C6.90668 17.5149 7.02501 17.8009 7.02501 18.099C7.02501 18.3971 6.90668 18.6831 6.696 18.894L5.106 20.4855C5.00227 20.593 4.87818 20.6788 4.74095 20.7378C4.60372 20.7968 4.45612 20.8279 4.30674 20.8293C4.15736 20.8306 4.00921 20.8023 3.87093 20.7458C3.73264 20.6893 3.607 20.6058 3.50132 20.5002C3.39564 20.3946 3.31205 20.269 3.25541 20.1308C3.19878 19.9926 3.17025 19.8445 3.17148 19.6951C3.1727 19.5457 3.20367 19.3981 3.26256 19.2608C3.32146 19.1235 3.4071 18.9993 3.5145 18.8955L5.1045 17.304C5.20898 17.1995 5.33303 17.1165 5.46956 17.0599C5.6061 17.0034 5.75245 16.9742 5.90025 16.9742C6.04805 16.9742 6.1944 17.0034 6.33094 17.0599C6.46747 17.1165 6.59153 17.1995 6.696 17.304Z" fill="#75767C"/>
</svg>
